<svg width="750" height="144" viewBox="0 0 750 144" fill="none" xmlns="http://www.w3.org/2000/svg">
<mask id="mask0_2003_37" style="mask-type:alpha" maskUnits="userSpaceOnUse" x="0" y="0" width="750" height="144">
<rect width="750" height="144" fill="#03A2F7"/>
</mask>
<g mask="url(#mask0_2003_37)">
<rect width="750" height="144" fill="#03A2F7"/>
<path d="M-170 317H-187L7.92001 -101H24.92L-170 317Z" fill="#00C8FF"/>
<path d="M-132 317H-149L45.92 -101H62.92L-132 317Z" fill="#00C8FF"/>
<path d="M-94 317H-111L83.92 -101H100.92L-94 317Z" fill="#00C8FF"/>
<path d="M-56 317H-73L121.92 -101H138.92L-56 317Z" fill="#00C8FF"/>
<path d="M-18 317H-35L159.92 -101H176.92L-18 317Z" fill="#00C8FF"/>
<path d="M20 317H3L197.92 -101H214.92L20 317Z" fill="#00C8FF"/>
<path d="M58 317H41L235.92 -101H252.92L58 317Z" fill="#00C8FF"/>
<path d="M96 317H79L273.92 -101H290.92L96 317Z" fill="#00C8FF"/>
<path d="M134 317H117L311.92 -101H328.92L134 317Z" fill="#00C8FF"/>
<path d="M172 317H155L349.92 -101H366.92L172 317Z" fill="#00C8FF"/>
<path d="M210 317H193L387.92 -101H404.92L210 317Z" fill="#00C8FF"/>
<path d="M248 317H231L425.92 -101H442.92L248 317Z" fill="#00C8FF"/>
<path d="M286 317H269L463.92 -101H480.92L286 317Z" fill="#00C8FF"/>
<path d="M324 317H307L501.92 -101H518.92L324 317Z" fill="#00C8FF"/>
<path d="M362 317H345L539.92 -101H556.92L362 317Z" fill="#00C8FF"/>
<path d="M400 317H383L577.92 -101H594.92L400 317Z" fill="#00C8FF"/>
<path d="M438 317H421L615.92 -101H632.92L438 317Z" fill="#00C8FF"/>
<path d="M476 317H459L653.92 -101H670.92L476 317Z" fill="#00C8FF"/>
<path d="M514 317H497L691.92 -101H708.92L514 317Z" fill="#00C8FF"/>
<path d="M552 317H535L729.92 -101H746.92L552 317Z" fill="#00C8FF"/>
<path d="M590 317H573L767.92 -101H784.92L590 317Z" fill="#00C8FF"/>
<path d="M628 317H611L805.92 -101H822.92L628 317Z" fill="#00C8FF"/>
<path d="M666 317H649L843.92 -101H860.92L666 317Z" fill="#00C8FF"/>
<path d="M704 317H687L881.92 -101H898.92L704 317Z" fill="#00C8FF"/>
<path d="M742 317H725L919.92 -101H936.92L742 317Z" fill="#00C8FF"/>
</g>
<path d="M75.972 90.334H62.126C57.664 90.334 56.146 90.426 55.87 90.426C55.456 90.426 55.41 90.38 55.41 89.874V86.286C55.41 85.826 55.456 85.78 55.87 85.78C56.146 85.78 57.664 85.872 62.126 85.872H66.082V69.68H61.39C56.882 69.68 55.364 69.772 55.088 69.772C54.628 69.772 54.582 69.726 54.582 69.22V65.632C54.582 65.172 54.628 65.126 55.088 65.126C55.364 65.126 56.882 65.218 61.39 65.218H66.082V58.042C66.082 54.776 66.082 53.12 65.76 51.05C67.554 51.096 69.394 51.188 70.958 51.372C71.418 51.418 71.694 51.648 71.694 51.878C71.694 52.2 71.556 52.476 71.418 52.798C71.188 53.396 71.096 54.546 71.096 57.95V65.218H77.03C81.538 65.218 83.102 65.126 83.332 65.126C83.792 65.126 83.838 65.172 83.838 65.632V69.22C83.838 69.726 83.792 69.772 83.332 69.772C83.102 69.772 81.538 69.68 77.03 69.68H71.096V85.872H75.972C80.388 85.872 81.906 85.78 82.182 85.78C82.688 85.78 82.734 85.826 82.734 86.286V89.874C82.734 90.38 82.688 90.426 82.182 90.426C81.906 90.426 80.388 90.334 75.972 90.334ZM47.314 85.09V74.51C47.314 73.038 47.314 71.29 47.36 69.588C46.348 71.014 45.29 72.348 44.232 73.59C43.91 73.958 43.634 74.142 43.404 74.142C43.174 74.142 42.99 73.866 42.898 73.36C42.576 71.75 41.886 70.048 41.334 69.174C45.244 64.804 48.786 59.054 50.488 53.58C50.856 52.522 51.086 51.464 51.178 50.36C52.788 50.774 54.49 51.28 55.778 51.832C56.284 52.016 56.514 52.2 56.514 52.522C56.514 52.844 56.33 53.074 56.008 53.35C55.732 53.626 55.548 53.994 55.134 55.144C54.306 57.352 53.294 59.652 52.098 61.906V85.09C52.098 89.598 52.19 91.852 52.19 92.082C52.19 92.542 52.144 92.588 51.638 92.588H47.774C47.268 92.588 47.222 92.542 47.222 92.082C47.222 91.806 47.314 89.598 47.314 85.09ZM106.7 79.524H94.372C90.37 79.524 88.99 79.616 88.714 79.616C88.3 79.616 88.254 79.57 88.254 79.11V76.35C88.254 75.89 88.3 75.844 88.714 75.844C88.99 75.844 90.37 75.936 94.372 75.936H106.7V73.774H99.11C94.648 73.774 93.13 73.866 92.854 73.866C92.394 73.866 92.348 73.82 92.348 73.406V70.876C92.348 70.416 92.394 70.37 92.854 70.37C93.13 70.37 94.648 70.462 99.11 70.462H106.7V68.438H100.766C96.258 68.438 94.648 68.53 94.372 68.53C93.866 68.53 93.82 68.484 93.82 67.978C93.82 67.702 93.912 67.104 93.912 65.586V63.102C93.912 61.584 93.82 60.986 93.82 60.71C93.82 60.204 93.866 60.158 94.372 60.158C94.648 60.158 96.258 60.25 100.766 60.25H106.7V58.226H95.108C90.968 58.226 89.542 58.318 89.266 58.318C88.806 58.318 88.76 58.272 88.76 57.812V54.914C88.76 54.454 88.806 54.408 89.266 54.408C89.542 54.408 90.968 54.5 95.108 54.5H106.7C106.7 52.66 106.608 51.556 106.378 50.268C108.08 50.314 109.552 50.36 111.162 50.544C111.576 50.59 111.898 50.774 111.898 51.05C111.898 51.418 111.76 51.648 111.622 51.924C111.438 52.43 111.346 52.982 111.346 54.5H123.03C127.17 54.5 128.596 54.408 128.872 54.408C129.332 54.408 129.378 54.454 129.378 54.914V57.812C129.378 58.272 129.332 58.318 128.872 58.318C128.596 58.318 127.17 58.226 123.03 58.226H111.346V60.25H117.464C121.972 60.25 123.582 60.158 123.904 60.158C124.364 60.158 124.41 60.204 124.41 60.71C124.41 60.986 124.318 61.584 124.318 63.102V65.586C124.318 67.104 124.41 67.702 124.41 67.978C124.41 68.484 124.364 68.53 123.904 68.53C123.582 68.53 121.972 68.438 117.464 68.438H111.346V70.462H118.798C123.306 70.462 124.916 70.37 125.146 70.37C125.606 70.37 125.652 70.416 125.652 70.876C125.652 71.152 125.56 72.256 125.56 74.878V75.936C128.274 75.936 129.332 75.844 129.562 75.844C129.976 75.844 130.022 75.89 130.022 76.35V79.11C130.022 79.57 129.976 79.616 129.562 79.616C129.332 79.616 128.274 79.57 125.56 79.524V81.87C125.56 84.63 125.652 85.826 125.652 86.102C125.652 86.562 125.606 86.608 125.146 86.608H121.604C121.144 86.608 121.098 86.562 121.098 86.102V85.09H111.392C111.438 85.918 111.438 86.7 111.438 87.39C111.438 89.506 111.024 90.748 109.782 91.484C108.632 92.128 106.608 92.45 103.296 92.496C101.916 92.496 101.916 92.45 101.456 91.162C101.042 90.012 100.444 88.77 99.662 87.666C101.364 87.85 102.606 87.896 104.308 87.85C106.286 87.804 106.7 87.482 106.7 86.148V85.09H99.156C94.648 85.09 93.13 85.182 92.854 85.182C92.394 85.182 92.348 85.136 92.348 84.63V82.146C92.348 81.64 92.394 81.594 92.854 81.594C93.13 81.594 94.648 81.686 99.156 81.686H106.7V79.524ZM121.098 73.774H111.346V75.936H121.098V73.774ZM111.346 81.686H121.098V79.524H111.346V81.686ZM119.856 65.494V63.194H111.346V65.494H119.856ZM98.374 65.494H106.7V63.194H98.374V65.494ZM158.128 92.45H154.678C154.218 92.45 154.172 92.404 154.172 91.898C154.172 91.668 154.264 90.38 154.264 83.48V79.34C154.264 75.154 154.172 73.774 154.172 73.544C154.172 73.038 154.218 72.992 154.678 72.992C155 72.992 156.288 73.084 160.106 73.084H167.788C171.56 73.084 172.894 72.992 173.17 72.992C173.676 72.992 173.722 73.038 173.722 73.544C173.722 73.774 173.63 75.154 173.63 78.604V83.342C173.63 90.15 173.722 91.438 173.722 91.714C173.722 92.128 173.676 92.174 173.17 92.174H169.628C169.168 92.174 169.122 92.128 169.122 91.714V89.966H158.68V91.898C158.68 92.404 158.634 92.45 158.128 92.45ZM158.68 77.316V85.734H169.122V77.316H158.68ZM146.904 66.138L148.836 65.402C149.434 65.172 149.572 65.264 149.802 65.724C151.136 68.484 152.102 71.06 152.884 74.004C153.022 74.51 152.884 74.648 152.286 74.832L149.94 75.522C149.388 75.706 149.25 75.66 149.158 75.154L148.652 73.13L145.754 73.406V86.01C145.754 90.242 145.846 91.806 145.846 92.036C145.846 92.496 145.8 92.542 145.34 92.542H141.844C141.384 92.542 141.338 92.496 141.338 92.036C141.338 91.76 141.43 90.242 141.43 86.01V73.82L137.382 74.096C136.6 74.142 136.048 74.28 135.726 74.464C135.542 74.556 135.266 74.694 134.99 74.694C134.668 74.694 134.53 74.372 134.438 73.912C134.208 72.808 133.978 71.52 133.794 70.048C135.174 70.14 136.416 70.186 137.612 70.14C138.486 69.036 139.36 67.84 140.234 66.644C138.394 64.344 136.324 62.09 134.116 59.974C133.702 59.652 133.84 59.514 134.162 59.008L135.726 56.616C135.91 56.34 136.048 56.202 136.186 56.202C136.278 56.202 136.416 56.294 136.6 56.478L137.842 57.766C138.808 56.202 139.59 54.776 140.372 53.028C140.97 51.786 141.2 51.05 141.43 50.176C142.672 50.636 144.19 51.234 145.34 51.832C145.754 52.062 145.938 52.292 145.938 52.568C145.938 52.798 145.754 52.982 145.524 53.166C145.156 53.442 144.972 53.672 144.65 54.27C143.178 56.8 142.028 58.64 140.602 60.664C141.292 61.446 141.982 62.228 142.626 63.01C143.73 61.308 144.742 59.606 145.754 57.858C146.306 56.846 146.766 55.742 147.134 54.73C148.514 55.374 149.94 56.064 150.998 56.708C151.412 56.938 151.55 57.122 151.55 57.398C151.55 57.72 151.412 57.904 151.044 58.088C150.584 58.364 150.216 58.87 149.526 59.974C147.18 63.654 144.696 67.196 142.534 69.956C144.19 69.864 145.892 69.726 147.548 69.588C147.226 68.714 146.858 67.84 146.444 66.966C146.26 66.506 146.26 66.368 146.904 66.138ZM170.134 56.57H163.556C163.096 62.918 160.566 67.334 155.506 70.6C154.954 70.968 154.678 71.198 154.448 71.198C154.126 71.198 153.942 70.876 153.482 70.186C152.792 69.174 151.918 68.254 151.09 67.794C156.012 65.402 158.588 62.228 159.048 56.57H158.634C154.54 56.57 153.16 56.662 152.838 56.662C152.378 56.662 152.332 56.616 152.332 56.11V52.936C152.332 52.43 152.378 52.384 152.838 52.384C153.16 52.384 154.54 52.476 158.634 52.476H168.386C172.526 52.476 173.906 52.384 174.182 52.384C174.642 52.384 174.688 52.476 174.688 52.982C174.688 54.132 174.688 55.236 174.642 56.156C174.504 61.4 174.09 65.632 173.262 67.472C172.342 69.542 170.41 70.416 167.88 70.416C166.822 70.416 166.132 70.416 165.258 70.37C163.97 70.324 163.97 70.278 163.74 68.852C163.556 67.748 163.188 66.552 162.774 65.77C164.384 66 165.902 66.138 167.006 66.138C168.156 66.138 168.754 65.77 169.168 65.126C169.674 64.298 170.088 60.618 170.134 56.57ZM133.702 87.804C134.668 84.814 135.312 82.008 135.542 79.018C135.634 78.144 135.68 77.454 135.588 76.442C136.738 76.58 138.164 76.856 139.13 77.086C139.682 77.224 139.912 77.408 139.912 77.638C139.912 77.868 139.82 78.052 139.682 78.282C139.544 78.512 139.498 79.064 139.406 79.8C139.084 82.514 138.532 85.78 137.796 88.356C137.566 89.092 137.382 89.368 137.106 89.368C136.922 89.368 136.646 89.23 136.278 89C135.404 88.494 134.392 88.034 133.702 87.804ZM147.824 77.132L150.032 76.58C150.584 76.442 150.63 76.488 150.814 76.994C151.596 79.294 152.332 82.652 152.7 85.32C152.746 85.826 152.7 85.964 152.102 86.148L149.894 86.884C149.204 87.114 149.112 87.068 149.066 86.608C148.698 83.618 147.962 80.214 147.318 77.868C147.18 77.362 147.318 77.27 147.824 77.132ZM203.714 52.246L203.392 52.522C208.314 59.238 213.696 63.424 222.804 67.012C222.022 67.978 221.378 69.22 220.826 70.646C220.504 71.474 220.366 71.842 219.998 71.842C219.768 71.842 219.446 71.658 218.94 71.428C210.752 67.564 205.232 62.872 200.908 56.386C196.676 63.01 191.156 67.564 183.704 71.52C183.152 71.842 182.83 72.026 182.6 72.026C182.324 72.026 182.14 71.658 181.772 70.876C181.22 69.588 180.53 68.53 179.656 67.61C187.706 64.114 193.088 59.606 196.998 53.258C197.78 52.062 198.194 51.188 198.608 49.9C200.402 50.176 202.012 50.406 203.392 50.866C203.806 50.958 204.174 51.234 204.174 51.556C204.174 51.786 204.036 51.97 203.714 52.246ZM181.266 88.632C185.544 87.252 188.534 85.182 189.96 82.744C191.294 80.49 191.708 77.684 191.708 72.762C191.708 70.784 191.662 69.082 191.386 67.38C192.996 67.38 194.974 67.472 196.492 67.61C196.998 67.656 197.274 67.84 197.274 68.162C197.274 68.53 197.182 68.76 197.044 69.174C196.906 69.588 196.768 70.462 196.768 72.9C196.768 79.34 195.986 82.836 194.192 85.78C192.536 88.402 189.776 90.656 186.004 92.312C185.452 92.588 185.13 92.772 184.9 92.772C184.624 92.772 184.394 92.496 183.98 91.76C183.29 90.656 182.186 89.322 181.266 88.632ZM205.232 85.918V74.326C205.232 71.75 205.232 69.358 204.91 67.288C206.704 67.334 208.452 67.472 209.97 67.656C210.43 67.702 210.66 67.886 210.66 68.162C210.66 68.53 210.522 68.944 210.43 69.312C210.292 69.956 210.2 71.612 210.2 74.28V85.918C210.2 89.69 210.292 91.576 210.292 91.852C210.292 92.266 210.246 92.312 209.74 92.312H205.646C205.186 92.312 205.14 92.266 205.14 91.852C205.14 91.53 205.232 89.69 205.232 85.918ZM238.168 52.522C240.376 52.522 242.492 52.66 244.194 53.074C244.746 53.212 245.022 53.442 245.022 53.81C245.022 54.454 244.7 55.098 244.7 55.742C244.7 56.662 244.838 57.766 244.93 58.824C245.344 62.044 245.804 64.344 246.402 66.736C248.702 65.494 250.358 64.62 252.934 63.24C254.268 62.458 255.372 61.676 256.108 60.756C257.58 62.274 258.776 63.884 259.466 65.08C259.65 65.356 259.788 65.724 259.788 66.046C259.788 66.506 259.512 66.874 258.868 66.966C257.488 67.196 255.924 67.748 254.452 68.346C250.496 69.956 246.816 71.658 243.642 73.728C239.64 76.35 238.214 78.512 238.214 80.674C238.214 83.388 240.238 84.538 245.528 84.538C251.324 84.538 256.016 84.124 259.558 83.48C260.064 83.388 260.294 83.48 260.386 84.032C260.616 85.274 260.754 86.93 260.846 88.31C260.892 88.816 260.57 89.046 260.018 89.092C255.832 89.644 252.152 89.782 246.31 89.782C237.616 89.782 233.016 86.93 233.016 80.95C233.016 75.844 236.374 72.486 241.756 69.082C240.652 65.54 239.824 61.4 239.364 57.858C239.042 55.42 238.72 53.81 238.168 52.522ZM307.352 90.932H294.426C290.056 90.932 288.538 91.024 288.262 91.024C287.802 91.024 287.756 90.978 287.756 90.518V86.884C287.756 86.424 287.802 86.378 288.262 86.378C288.538 86.378 290.056 86.47 294.426 86.47H298.29V69.266H296.22C292.126 69.266 290.7 69.312 290.424 69.312C290.01 69.312 289.964 69.312 289.964 68.852V65.218C289.964 64.758 290.01 64.758 290.424 64.758C290.7 64.758 292.126 64.804 296.22 64.804H298.29V57.49C298.29 54.224 298.244 52.66 297.922 50.544C299.67 50.59 301.418 50.682 303.028 50.866C303.442 50.912 303.764 51.096 303.764 51.326C303.764 51.694 303.718 51.924 303.534 52.292C303.258 52.844 303.166 53.994 303.166 57.352V64.804H306.064C310.158 64.804 311.584 64.758 311.86 64.758C312.32 64.758 312.366 64.758 312.366 65.218V68.852C312.366 69.312 312.32 69.312 311.86 69.312C311.584 69.312 310.158 69.266 306.064 69.266H303.166V86.47H307.352C311.722 86.47 313.194 86.378 313.47 86.378C313.976 86.378 314.022 86.424 314.022 86.884V90.518C314.022 90.978 313.976 91.024 313.47 91.024C313.194 91.024 311.722 90.932 307.352 90.932ZM279.062 86.746V75.752C277.636 77.132 276.21 78.42 274.692 79.57C274.232 79.938 273.956 80.168 273.726 80.168C273.45 80.168 273.266 79.8 272.99 79.11C272.53 77.822 271.978 76.626 271.38 75.844C276.762 72.44 281.086 67.472 283.386 62.228H278.188C274.692 62.228 273.588 62.32 273.312 62.32C272.852 62.32 272.806 62.274 272.806 61.814V58.41C272.806 57.95 272.852 57.904 273.312 57.904C273.588 57.904 274.692 57.996 278.188 57.996H279.062V56.11C279.062 53.672 279.016 52.2 278.694 50.498C280.442 50.544 281.822 50.636 283.478 50.82C283.938 50.866 284.214 51.096 284.214 51.28C284.214 51.694 284.076 51.924 283.938 52.246C283.662 52.798 283.662 53.58 283.662 55.926V57.996H285.594C286.008 57.996 286.238 57.95 286.468 57.812C286.652 57.72 286.836 57.628 286.974 57.628C287.25 57.628 287.71 57.904 288.676 58.824C289.55 59.698 289.918 60.158 289.918 60.48C289.918 60.71 289.826 60.94 289.458 61.216C289.044 61.63 288.768 61.86 288.4 62.55C287.296 64.896 285.962 67.15 284.49 69.266C286.284 71.336 288.446 72.992 291.252 74.648C290.562 75.384 289.918 76.488 289.412 77.638C289.09 78.328 288.86 78.65 288.538 78.65C288.308 78.65 288.032 78.466 287.618 78.098C286.146 76.764 284.812 75.292 283.662 73.82V86.746C283.662 90.15 283.754 91.944 283.754 92.174C283.754 92.634 283.708 92.68 283.202 92.68H279.522C279.016 92.68 278.97 92.634 278.97 92.174C278.97 91.898 279.062 90.15 279.062 86.746ZM347.832 84.4H331.456C332.974 85.09 334.124 85.872 334.998 86.47C335.458 86.792 335.596 86.93 335.596 87.206C335.596 87.528 335.32 87.758 334.86 87.85C334.4 87.942 333.94 88.218 333.066 88.678C330.674 90.104 326.81 91.714 322.808 92.634C322.348 92.726 322.072 92.818 321.842 92.818C321.336 92.818 321.198 92.496 320.738 91.576C320.186 90.518 319.312 89.368 318.622 88.678C322.578 88.172 326.396 87.068 328.88 85.826C329.524 85.55 330.536 84.998 331.18 84.4H330.076C325.568 84.4 323.958 84.492 323.682 84.492C323.176 84.492 323.13 84.446 323.13 83.986C323.13 83.71 323.222 82.33 323.222 79.156V69.588C323.222 66.368 323.13 64.988 323.13 64.712C323.13 64.252 323.176 64.206 323.682 64.206C323.958 64.206 325.568 64.298 330.076 64.298H347.832C352.34 64.298 353.95 64.206 354.226 64.206C354.686 64.206 354.732 64.252 354.732 64.712C354.732 64.988 354.64 66.368 354.64 69.588V79.156C354.64 82.33 354.732 83.756 354.732 83.986C354.732 84.446 354.686 84.492 354.226 84.492C353.95 84.492 352.34 84.4 347.832 84.4ZM349.902 80.858V78.466H327.96V80.858H349.902ZM327.96 75.384H349.902V73.084H327.96V75.384ZM327.96 67.794V70.048H349.902V67.794H327.96ZM332.422 52.016H345.532C349.902 52.016 351.42 51.924 351.696 51.924C352.156 51.924 352.202 51.97 352.202 52.43C352.202 52.706 352.11 53.488 352.11 55.512V58.502C352.11 60.48 352.202 61.262 352.202 61.538C352.202 61.998 352.156 62.044 351.696 62.044C351.42 62.044 349.902 61.952 345.532 61.952H332.422C328.052 61.952 326.58 62.044 326.258 62.044C325.798 62.044 325.752 61.998 325.752 61.538C325.752 61.216 325.844 60.48 325.844 58.502V55.512C325.844 53.488 325.752 52.706 325.752 52.43C325.752 51.97 325.798 51.924 326.258 51.924C326.58 51.924 328.052 52.016 332.422 52.016ZM347.326 58.502V55.604H330.628V58.502H347.326ZM342.91 86.562L345.716 84.768C345.946 84.584 346.13 84.492 346.314 84.492C346.406 84.492 346.498 84.538 346.682 84.63C350.132 86.654 354.364 88.034 359.332 88.678C358.55 89.414 357.722 90.472 357.078 91.484C356.526 92.358 356.342 92.68 355.882 92.68C355.652 92.68 355.376 92.588 354.916 92.496C350.316 91.438 345.992 89.598 342.726 87.39C342.542 87.252 342.45 87.16 342.45 87.022C342.45 86.884 342.588 86.746 342.91 86.562ZM388.128 92.45H384.678C384.218 92.45 384.172 92.404 384.172 91.898C384.172 91.668 384.264 90.38 384.264 83.48V79.34C384.264 75.154 384.172 73.774 384.172 73.544C384.172 73.038 384.218 72.992 384.678 72.992C385 72.992 386.288 73.084 390.106 73.084H397.788C401.56 73.084 402.894 72.992 403.17 72.992C403.676 72.992 403.722 73.038 403.722 73.544C403.722 73.774 403.63 75.154 403.63 78.604V83.342C403.63 90.15 403.722 91.438 403.722 91.714C403.722 92.128 403.676 92.174 403.17 92.174H399.628C399.168 92.174 399.122 92.128 399.122 91.714V89.966H388.68V91.898C388.68 92.404 388.634 92.45 388.128 92.45ZM388.68 77.316V85.734H399.122V77.316H388.68ZM376.904 66.138L378.836 65.402C379.434 65.172 379.572 65.264 379.802 65.724C381.136 68.484 382.102 71.06 382.884 74.004C383.022 74.51 382.884 74.648 382.286 74.832L379.94 75.522C379.388 75.706 379.25 75.66 379.158 75.154L378.652 73.13L375.754 73.406V86.01C375.754 90.242 375.846 91.806 375.846 92.036C375.846 92.496 375.8 92.542 375.34 92.542H371.844C371.384 92.542 371.338 92.496 371.338 92.036C371.338 91.76 371.43 90.242 371.43 86.01V73.82L367.382 74.096C366.6 74.142 366.048 74.28 365.726 74.464C365.542 74.556 365.266 74.694 364.99 74.694C364.668 74.694 364.53 74.372 364.438 73.912C364.208 72.808 363.978 71.52 363.794 70.048C365.174 70.14 366.416 70.186 367.612 70.14C368.486 69.036 369.36 67.84 370.234 66.644C368.394 64.344 366.324 62.09 364.116 59.974C363.702 59.652 363.84 59.514 364.162 59.008L365.726 56.616C365.91 56.34 366.048 56.202 366.186 56.202C366.278 56.202 366.416 56.294 366.6 56.478L367.842 57.766C368.808 56.202 369.59 54.776 370.372 53.028C370.97 51.786 371.2 51.05 371.43 50.176C372.672 50.636 374.19 51.234 375.34 51.832C375.754 52.062 375.938 52.292 375.938 52.568C375.938 52.798 375.754 52.982 375.524 53.166C375.156 53.442 374.972 53.672 374.65 54.27C373.178 56.8 372.028 58.64 370.602 60.664C371.292 61.446 371.982 62.228 372.626 63.01C373.73 61.308 374.742 59.606 375.754 57.858C376.306 56.846 376.766 55.742 377.134 54.73C378.514 55.374 379.94 56.064 380.998 56.708C381.412 56.938 381.55 57.122 381.55 57.398C381.55 57.72 381.412 57.904 381.044 58.088C380.584 58.364 380.216 58.87 379.526 59.974C377.18 63.654 374.696 67.196 372.534 69.956C374.19 69.864 375.892 69.726 377.548 69.588C377.226 68.714 376.858 67.84 376.444 66.966C376.26 66.506 376.26 66.368 376.904 66.138ZM400.134 56.57H393.556C393.096 62.918 390.566 67.334 385.506 70.6C384.954 70.968 384.678 71.198 384.448 71.198C384.126 71.198 383.942 70.876 383.482 70.186C382.792 69.174 381.918 68.254 381.09 67.794C386.012 65.402 388.588 62.228 389.048 56.57H388.634C384.54 56.57 383.16 56.662 382.838 56.662C382.378 56.662 382.332 56.616 382.332 56.11V52.936C382.332 52.43 382.378 52.384 382.838 52.384C383.16 52.384 384.54 52.476 388.634 52.476H398.386C402.526 52.476 403.906 52.384 404.182 52.384C404.642 52.384 404.688 52.476 404.688 52.982C404.688 54.132 404.688 55.236 404.642 56.156C404.504 61.4 404.09 65.632 403.262 67.472C402.342 69.542 400.41 70.416 397.88 70.416C396.822 70.416 396.132 70.416 395.258 70.37C393.97 70.324 393.97 70.278 393.74 68.852C393.556 67.748 393.188 66.552 392.774 65.77C394.384 66 395.902 66.138 397.006 66.138C398.156 66.138 398.754 65.77 399.168 65.126C399.674 64.298 400.088 60.618 400.134 56.57ZM363.702 87.804C364.668 84.814 365.312 82.008 365.542 79.018C365.634 78.144 365.68 77.454 365.588 76.442C366.738 76.58 368.164 76.856 369.13 77.086C369.682 77.224 369.912 77.408 369.912 77.638C369.912 77.868 369.82 78.052 369.682 78.282C369.544 78.512 369.498 79.064 369.406 79.8C369.084 82.514 368.532 85.78 367.796 88.356C367.566 89.092 367.382 89.368 367.106 89.368C366.922 89.368 366.646 89.23 366.278 89C365.404 88.494 364.392 88.034 363.702 87.804ZM377.824 77.132L380.032 76.58C380.584 76.442 380.63 76.488 380.814 76.994C381.596 79.294 382.332 82.652 382.7 85.32C382.746 85.826 382.7 85.964 382.102 86.148L379.894 86.884C379.204 87.114 379.112 87.068 379.066 86.608C378.698 83.618 377.962 80.214 377.318 77.868C377.18 77.362 377.318 77.27 377.824 77.132ZM433.714 52.246L433.392 52.522C438.314 59.238 443.696 63.424 452.804 67.012C452.022 67.978 451.378 69.22 450.826 70.646C450.504 71.474 450.366 71.842 449.998 71.842C449.768 71.842 449.446 71.658 448.94 71.428C440.752 67.564 435.232 62.872 430.908 56.386C426.676 63.01 421.156 67.564 413.704 71.52C413.152 71.842 412.83 72.026 412.6 72.026C412.324 72.026 412.14 71.658 411.772 70.876C411.22 69.588 410.53 68.53 409.656 67.61C417.706 64.114 423.088 59.606 426.998 53.258C427.78 52.062 428.194 51.188 428.608 49.9C430.402 50.176 432.012 50.406 433.392 50.866C433.806 50.958 434.174 51.234 434.174 51.556C434.174 51.786 434.036 51.97 433.714 52.246ZM411.266 88.632C415.544 87.252 418.534 85.182 419.96 82.744C421.294 80.49 421.708 77.684 421.708 72.762C421.708 70.784 421.662 69.082 421.386 67.38C422.996 67.38 424.974 67.472 426.492 67.61C426.998 67.656 427.274 67.84 427.274 68.162C427.274 68.53 427.182 68.76 427.044 69.174C426.906 69.588 426.768 70.462 426.768 72.9C426.768 79.34 425.986 82.836 424.192 85.78C422.536 88.402 419.776 90.656 416.004 92.312C415.452 92.588 415.13 92.772 414.9 92.772C414.624 92.772 414.394 92.496 413.98 91.76C413.29 90.656 412.186 89.322 411.266 88.632ZM435.232 85.918V74.326C435.232 71.75 435.232 69.358 434.91 67.288C436.704 67.334 438.452 67.472 439.97 67.656C440.43 67.702 440.66 67.886 440.66 68.162C440.66 68.53 440.522 68.944 440.43 69.312C440.292 69.956 440.2 71.612 440.2 74.28V85.918C440.2 89.69 440.292 91.576 440.292 91.852C440.292 92.266 440.246 92.312 439.74 92.312H435.646C435.186 92.312 435.14 92.266 435.14 91.852C435.14 91.53 435.232 89.69 435.232 85.918Z" fill="white"/>
</svg>
